<svg id="Layer_1" data-name="Layer 1" xmlns="http://www.w3.org/2000/svg" viewBox="0 0 163 163"><defs><style>.cls-1{fill:#1d8953;}.cls-2{fill:#4c3e36;}</style></defs><title>React_Kyiv__Logo</title><path class="cls-1" d="M106.59,51.3q-1.22-.42-2.52-.79.21-.87.39-1.72c1.91-9.25.66-16.7-3.59-19.15-4.08-2.35-10.75.1-17.49,6q-1,.85-1.95,1.79-.65-.62-1.3-1.2C73.08,29.92,66,27.28,61.75,29.74c-4.08,2.36-5.28,9.36-3.57,18.13q.25,1.27.58,2.59c-1,.28-2,.59-2.89.91-8.28,2.89-13.56,7.41-13.56,12.1,0,4.85,5.68,9.71,14.3,12.65q1,.35,2.11.66-.35,1.43-.61,2.79c-1.64,8.61-.36,15.45,3.71,17.8s11.24-.07,18.1-6.06q.81-.71,1.63-1.5,1.06,1,2.11,1.93c6.65,5.72,13.21,8,17.27,5.68s5.56-9.77,3.79-18.71q-.2-1-.47-2.09l1.45-.45c9-3,14.8-7.77,14.8-12.68C120.49,58.76,115,54.21,106.59,51.3Zm-21-13.18c5.77-5,11.17-7,13.63-5.59,2.62,1.51,3.64,7.6,2,15.58q-.16.76-.35,1.55A80,80,0,0,0,90.39,48a78.46,78.46,0,0,0-6.61-8.25Q84.68,38.9,85.58,38.12ZM67.16,63.55c1-2.1,2.12-4.21,3.33-6.3h0c1.21-2.09,2.48-4.11,3.79-6,2.33-.18,4.71-.27,7.12-.27h0c2.42,0,4.81.09,7.13.27,1.29,1.91,2.56,3.92,3.77,6s2.35,4.22,3.37,6.27c-1,2.09-2.14,4.21-3.36,6.33S89.83,74,88.56,75.88c-2.32.17-4.72.25-7.16.25s-4.8-.08-7.08-.22c-1.33-1.93-2.61-4-3.82-6.06h0C69.29,67.76,68.17,65.65,67.16,63.55Zm-1.77,3.93q1,2,2.22,4h0q1.19,2.05,2.45,4a71.1,71.1,0,0,1-7.21-1.16C63.55,72.15,64.4,69.83,65.39,67.48Zm0-7.86c-1-2.31-1.8-4.58-2.48-6.77,2.23-.5,4.61-.91,7.09-1.22q-1.23,1.92-2.4,3.94h0Q66.44,57.59,65.39,59.62ZM95.2,71.5q1.19-2.07,2.27-4.14a70.86,70.86,0,0,1,2.63,6.88,71,71,0,0,1-7.29,1.24Q94,73.55,95.2,71.5Zm2.24-11.88q-1.06-2-2.25-4.07t-2.38-3.91c2.49.32,4.88.73,7.13,1.25A71.35,71.35,0,0,1,97.44,59.62Zm-16-17.47A71.4,71.4,0,0,1,86,47.71q-2.29-.11-4.64-.11t-4.6.11C78.32,45.71,79.87,43.85,81.44,42.16Zm-18-9.53c2.62-1.51,8.4.64,14.5,6.06q.58.52,1.17,1.08A80,80,0,0,0,72.43,48,81.64,81.64,0,0,0,62,49.63q-.31-1.23-.54-2.41C60,39.72,61,34.05,63.43,32.63ZM59.61,73.57q-1-.29-1.93-.6a28.29,28.29,0,0,1-9.12-4.84c-1.94-1.66-2.92-3.31-2.92-4.65,0-2.85,4.24-6.48,11.32-8.95.86-.3,1.76-.58,2.69-.85a80.06,80.06,0,0,0,3.81,9.88A81.38,81.38,0,0,0,59.61,73.57Zm18.1,15.23A28.29,28.29,0,0,1,69,94.27c-2.41.85-4.32.87-5.48.21C61,93.05,60,87.56,61.38,80.2q.24-1.27.57-2.6a78.55,78.55,0,0,0,10.54,1.53,81.31,81.31,0,0,0,6.71,8.29Q78.46,88.14,77.71,88.79ZM81.53,85c-1.58-1.71-3.16-3.6-4.7-5.63q2.25.09,4.57.09t4.72-.1A71.05,71.05,0,0,1,81.53,85Zm20.28,4.65c-.47,2.51-1.4,4.18-2.56,4.85-2.46,1.43-7.73-.43-13.42-5.32q-1-.84-2-1.79a78.47,78.47,0,0,0,6.55-8.32A78,78,0,0,0,101,77.45q.24,1,.42,1.89A28.28,28.28,0,0,1,101.81,89.66ZM104.65,73l-1.31.41a78.35,78.35,0,0,0-4-9.91,78.33,78.33,0,0,0,3.81-9.76q1.2.35,2.32.73c7.24,2.49,11.65,6.17,11.65,9C117.15,66.49,112.39,70.42,104.65,73Z"/><polygon class="cls-1" points="81.18 53.84 77.47 57.43 81.18 65.01 84.89 57.43 81.18 53.84"/><path class="cls-1" d="M81.18,66.69l-4.61-9.42,4.61-4.46,4.61,4.46Zm-2.81-9.11,2.81,5.75L84,57.58l-2.81-2.72Z"/><polygon class="cls-1" points="90.24 61.65 87.19 59.9 81.18 65.01 75.17 59.9 72.11 61.65 73.83 65.6 80.77 65.6 75.41 68 75.41 71.12 78.63 70.98 81.18 65.6 83.72 70.98 86.95 71.12 86.95 68 81.59 65.6 88.52 65.6 90.24 61.65"/><path class="cls-1" d="M87.68,71.89l-4.44-.2-2.07-4.37-2.07,4.37-4.44.2V67.52l2.65-1.18h-4l-2.18-5L75.25,59l5.87,5,.06-.12.06.12,5.87-5,4.08,2.33-2.18,5H85l2.65,1.18ZM84.2,70.26l2,.09V68.47l-3.62-1.62Zm-8.05-1.79v1.88l2-.09,1.61-3.41Zm8.07-3.61H88L89.3,62l-2-1.16L82.5,64.86Zm-9.9,0h5.54L75.08,60.8l-2,1.16Z"/><rect class="cls-1" x="80.69" y="65.6" width="0.97" height="8.58"/><path class="cls-2" d="M14.16,120.28v8.39H10.72v-21h5.93q4.06,0,6,1.53a5.46,5.46,0,0,1,2,4.6q0,3.92-4.08,5.58l5.92,9.29H22.57l-5-8.39Zm0-2.84h2.38a5.44,5.44,0,0,0,3.48-.89,3.23,3.23,0,0,0,1.08-2.64,2.85,2.85,0,0,0-1.16-2.56,6.38,6.38,0,0,0-3.5-.78H14.16Z"/><path class="cls-2" d="M36.09,129a7.68,7.68,0,0,1-5.79-2.17,8.21,8.21,0,0,1-2.08-6,9,9,0,0,1,1.94-6.12,6.69,6.69,0,0,1,5.33-2.22,6.54,6.54,0,0,1,5,1.91,7.29,7.29,0,0,1,1.82,5.26v1.82H31.69A5.21,5.21,0,0,0,32.94,125a4.35,4.35,0,0,0,3.32,1.24,12.21,12.21,0,0,0,2.62-.26,13.74,13.74,0,0,0,2.61-.88v2.74a10.36,10.36,0,0,1-2.5.83A15.31,15.31,0,0,1,36.09,129Zm-.61-13.9a3.38,3.38,0,0,0-2.58,1,4.85,4.85,0,0,0-1.16,3H39a4.41,4.41,0,0,0-.95-3A3.24,3.24,0,0,0,35.48,115.06Z"/><path class="cls-2" d="M56,128.69l-.67-2.21h-.12a6.49,6.49,0,0,1-2.31,2,7.3,7.3,0,0,1-3,.52,5,5,0,0,1-3.65-1.27A4.73,4.73,0,0,1,45,124.13a4.2,4.2,0,0,1,1.83-3.7,10.51,10.51,0,0,1,5.56-1.36l2.74-.08v-.85a3.21,3.21,0,0,0-.71-2.28,2.9,2.9,0,0,0-2.2-.75,7.63,7.63,0,0,0-2.34.36,18,18,0,0,0-2.16.85l-1.09-2.41a11.77,11.77,0,0,1,2.83-1,13,13,0,0,1,2.9-.35,6.86,6.86,0,0,1,4.57,1.32A5.17,5.17,0,0,1,58.46,118v10.7Zm-5-2.3a4.17,4.17,0,0,0,3-1,3.72,3.72,0,0,0,1.11-2.88v-1.38l-2,.08a7,7,0,0,0-3.47.79,2.42,2.42,0,0,0-1.09,2.17,2.13,2.13,0,0,0,.63,1.65A2.71,2.71,0,0,0,51,126.39Z"/><path class="cls-2" d="M69.57,129a7,7,0,0,1-5.48-2.11,10.66,10.66,0,0,1,.09-12.2,7.27,7.27,0,0,1,5.67-2.15,10.62,10.62,0,0,1,4.52.94l-1,2.71a10.23,10.23,0,0,0-3.53-.83q-4.12,0-4.12,5.47a6.55,6.55,0,0,0,1,4,3.55,3.55,0,0,0,3,1.34A8.63,8.63,0,0,0,74,125.05V128a6.67,6.67,0,0,1-1.93.76A11.6,11.6,0,0,1,69.57,129Z"/><path class="cls-2" d="M83.64,126.27a8.2,8.2,0,0,0,2.47-.39v2.54a6.82,6.82,0,0,1-1.44.41,9.92,9.92,0,0,1-1.83.16Q78,129,78,123.94v-8.56H75.88v-1.49l2.33-1.23,1.15-3.36h2.08v3.53H86v2.56H81.44v8.5a2.38,2.38,0,0,0,.61,1.8A2.22,2.22,0,0,0,83.64,126.27Z"/><path class="cls-2" d="M113.31,128.73h-4l-6.58-9.51-2,1.65v7.85H97.28v-21h3.43v10q1.41-1.72,2.8-3.32l5.68-6.7h3.91q-5.5,6.46-7.89,9.2Z"/><path class="cls-2" d="M113.32,112.85H117l3.23,9a17.07,17.07,0,0,1,1,3.62h.11a15.2,15.2,0,0,1,.48-1.92q.34-1.13,3.65-10.7h3.65l-6.8,18q-1.86,5-6.18,4.95a9.76,9.76,0,0,1-2.18-.24v-2.67a8,8,0,0,0,1.74.17q2.44,0,3.43-2.83l.59-1.49Z"/><path class="cls-2" d="M131.3,108.65a1.87,1.87,0,0,1,.5-1.39,1.93,1.93,0,0,1,1.41-.49,1.71,1.71,0,0,1,1.88,1.88,1.84,1.84,0,0,1-.5,1.36,1.88,1.88,0,0,1-1.39.5,1.92,1.92,0,0,1-1.41-.5A1.83,1.83,0,0,1,131.3,108.65Zm3.56,20.09h-3.37V112.86h3.38Z"/><path class="cls-2" d="M143.3,128.75l-6-15.89h3.56l3.22,9.24a18.19,18.19,0,0,1,1,3.76h.12a25.26,25.26,0,0,1,1-3.76l3.24-9.23H153L147,128.75Z"/></svg>