<svg id="Layer_1" data-name="Layer 1" xmlns="http://www.w3.org/2000/svg" xmlns:xlink="http://www.w3.org/1999/xlink" viewBox="0 0 1800 1137.25"><defs><style>.cls-1{fill:url(#linear-gradient);}.cls-2{opacity:0.86;fill:url(#linear-gradient-2);}.cls-3{opacity:0.6;}.cls-4{fill:#4bb7e8;}.cls-5{fill:#0d0e1a;}</style><linearGradient id="linear-gradient" x1="900.17" y1="1137.25" x2="900.17" y2="12.15" gradientUnits="userSpaceOnUse"><stop offset="0" stop-color="#010101"/><stop offset="0.07" stop-color="#030404"/><stop offset="0.13" stop-color="#080c0e"/><stop offset="0.18" stop-color="#121a1f"/><stop offset="0.23" stop-color="#1f2d36"/><stop offset="0.28" stop-color="#304654"/><stop offset="0.32" stop-color="#45657a"/><stop offset="0.36" stop-color="#5d89a5"/><stop offset="0.37" stop-color="#6290ae"/><stop offset="0.39" stop-color="#8895a2"/><stop offset="0.41" stop-color="#ad9a96"/><stop offset="0.43" stop-color="#c89e8d"/><stop offset="0.45" stop-color="#d8a088"/><stop offset="0.47" stop-color="#dea186"/><stop offset="0.49" stop-color="#d49c88"/><stop offset="0.52" stop-color="#b98d8e"/><stop offset="0.56" stop-color="#8e7598"/><stop offset="0.59" stop-color="#72669f"/><stop offset="0.65" stop-color="#514983"/><stop offset="0.73" stop-color="#332f6a"/><stop offset="0.77" stop-color="#282560"/><stop offset="0.91" stop-color="#252639"/><stop offset="1" stop-color="#242626"/></linearGradient><linearGradient id="linear-gradient-2" x1="-4.79" y1="948.9" x2="1799.66" y2="948.9" gradientUnits="userSpaceOnUse"><stop offset="0" stop-color="#00beee"/><stop offset="0.26" stop-color="#41c5ee"/><stop offset="0.51" stop-color="#79cbed"/><stop offset="0.73" stop-color="#a2cfed"/><stop offset="0.9" stop-color="#bbd2ed"/><stop offset="1" stop-color="#c4d3ed"/></linearGradient></defs><title>Notebook_background</title><rect class="cls-1" x="0.35" width="1799.65" height="1137.25"/><path class="cls-2" d="M75.7,762.15,37.34,778.32H-4.79V780H33.33L-4.79,796.08v1.69L37.14,780h86.95L86,797.94H-4.79v1.88H82l-42.43,20H-4.79v2.1H35.15L-4.79,840.71v2.1L39.4,821.9h96.95l-42,22.41H-4.79v2.36h94.7L42.46,872H-4.79v2.68H37.44L-4.79,897.21v2.7l47-25.24H151.79L105,903.5H-4.79v3.06H100l-53.8,33.11h-51v3.54H40.42L-4.79,971v3.6l50.73-31.42h125.9L119,981.65H-4.79v4.13H113.29l-62.12,45.16h-56v4.88H44.45l-49.24,35.79v5l55.73-40.82h148l-60.62,53.81H-4.79v5.86H131.72l-47,41.69h7.55l46.53-41.69H301.09l-36.58,41.69h7.55l36.14-41.69H470.46l-26.19,41.69h7.55l25.75-41.69H639.83L624,1137.18h7.55l15.36-41.69H809.2l-5.41,41.69h7.55l5-41.69H978.56l5,41.69h7.55l-5.41-41.69h162.25l15.36,41.69h7.55l-15.8-41.69H1317.3l25.75,41.69h7.55l-26.19-41.69h162.25l36.14,41.69h7.55l-36.58-41.69H1656l46.53,41.69h7.55l-47-41.69h136.52v-5.86H1656.54l-60.62-53.81h148l55.73,40.82v-5l-49.24-35.79h49.24v-4.88h-56l-62.12-45.16h118.08v-4.13H1675.91L1623,943.21h125.9l50.73,31.42V971l-45.21-27.82h45.21v-3.54h-51l-53.8-33.11h104.76V903.5H1689.92l-46.83-28.82h109.54l47,25.24v-2.7l-42.23-22.53h42.23V872h-47.25L1705,846.68h94.7v-2.36h-99.13l-42-22.41h96.95l44.19,20.91v-2.11l-39.94-18.81h39.94v-2.1h-44.4l-42.43-20h86.83v-1.88h-90.82L1670.79,780h86.95l41.93,17.75v-1.69L1761.55,780h38.12v-1.69h-42.13l-38.37-16.17h80.49v-1.53H-4.79v1.53ZM127.9,780h86.95l-33.59,17.93H90ZM1203.81,903.5l-18.11-28.82h109.54l25,28.82Zm119.08,3.06,28.71,33.11H1226.53l-20.8-33.11ZM474.64,903.5l25-28.82H609.17L591.06,903.5Zm114.5,3.06-20.8,33.11H443.28L472,906.56ZM1179.24,872h-108.9l-9.6-25.32h102.86Zm-11.13-25.32H1271L1292.92,872H1184ZM1065.56,872H956.66l-3.29-25.32h102.86ZM955.65,903.5H839.22l3.44-28.82H952.21ZM838.21,872H729.31l9.33-25.32H841.5Zm-113.68,0H615.63l15.64-25.32H734.13Zm-113.68,0H501.95l21.95-25.32H626.76Zm-113.68,0H388.27l28.25-25.32H519.39ZM614,874.67H723.52L712.59,903.5H596.17Zm114.35,0H837.86l-3.74,28.82H717.7Zm110.54,31.89H956l4,33.11H834.91ZM957,874.67h109.54l10.62,28.82H960.75Zm114.35,0H1180.9l17.8,28.82H1082.28Zm204.13-28h102.86L1406.6,872H1297.7Zm-2.07-2.36-19.66-22.41h96.95l25,22.41Zm-4.49,0h-102.3l-14.08-22.41h96.95Zm-106.78,0h-102.3l-8.49-22.41h96.95Zm-106.78,0H953.07l-2.91-22.41h96.95ZM951.89,872H843l3-25.32H948.86ZM841.8,844.31H739.51l8.26-22.41h96.95Zm-106.78,0H632.73l13.84-22.41h96.95Zm-106.78,0H525.95l19.43-22.41h96.95Zm-106.78,0H419.16l25-22.41h96.95Zm-106.78,0H312.38L343,821.9h96.94ZM412,846.68,383.5,872H274.59l34.56-25.32Zm-26.74,28H494.82L469.54,903.5H353.11Zm81.57,31.89-29.05,33.11H312.73l37-33.11Zm-26.64,36.65h125.9L542,981.65H406.89Zm131.42,0h125.9L683,981.65H547.89Zm2.18-3.54,20.45-33.11H711.43l-12.55,33.11Zm142.75-33.11H833.72l-4.3,33.11H704.36Zm117.92,36.65h125.9L965,981.65H829.9Zm126.66-36.65H1078.3l12.2,33.11H965.45Zm122.29,0H1200.6l20.45,33.11H1096Zm139.79,36.65L1247,981.65H1111.9l-14.57-38.44Zm5.52,0h125.9L1388,981.65H1252.9ZM1328,906.56h117.16l37,33.11H1357.08Zm-2.69-3.06L1300,874.67h109.54l32.17,28.82Zm57.52-56.82h102.86L1520.28,872h-108.9Zm-2.66-2.36-25.25-22.41h96.95l30.6,22.41Zm45.57-44.5h91.67l32.26,20h-96.44Zm23.26,20h-96.44l-22.51-20h91.67Zm-100.67,0H1251.9l-17.53-20H1326Zm-100.67,0h-96.44l-12.55-20h91.67Zm-100.67,0h-96.44l-7.57-20h91.67Zm-100.67,0H949.89l-2.59-20H1039Zm-97.75,24.51H846.29L849,821.9h96.94ZM845,819.8H748.54l7.36-20h91.67Zm-100.67,0H647.87l12.34-20h91.67Zm-100.67,0H547.2l17.32-20h91.67ZM543,819.8H446.52l22.3-20H560.5Zm-100.67,0H345.85l27.28-20h91.67Zm-100.67,0H245.18l32.26-20h91.67ZM241,819.8H144.51l37.24-20h91.67Zm.84,2.1h96.95L307.9,844.31H205.6Zm62.86,24.78L269.82,872H160.92l40.87-25.32Zm-33.71,28H380.48L348,903.5H231.58Zm73.62,31.89-37.3,33.11H182.19l45.21-33.11Zm-35.77,36.65h125.9L401,981.65H265.89Zm88.56,42.57-39.62,45.16H210.88l50.4-45.16Zm6,0H539.38L511,1030.93H364.17Zm142,0H681.41l-17.11,45.16H517.45Zm142,0H823.44l-5.86,45.16H670.73Zm1.52-4.13,14.17-38.44H829l-5,38.44Zm140.51,4.13H965.47l5.39,45.16H824Zm136.5-42.57h125.9L1106,981.65H970.9Zm141.59,42.57,16.64,45.16H977.29l-5.86-45.16Zm6,0h136.07l27.89,45.16H1130.58Zm142,0h136.07l39.15,45.16H1283.86Zm142,0h136.07l50.4,45.16H1437.14Zm-3.62-4.13-33.72-38.44h125.9l42.9,38.44Zm56.41-75.09h117.16l45.21,33.11H1487.62Zm-3.45-3.06-32.47-28.82h109.54l39.35,28.82Zm43.36-56.82h102.86L1634,872h-108.9Zm-3.25-2.36-30.83-22.41h96.95l36.18,22.41Zm34.48-44.5h91.67l37.24,20h-96.44Zm-3.05-1.88L1489.27,780h86.95l33.41,17.93Zm-4,0h-91.23L1398.51,780h86.95Zm-95.22,0h-91.23L1307.75,780h86.95Zm-95.23,0h-91.23L1217,780h86.95Zm-95.23,0H1137.5L1126.24,780h86.95Zm-95.23,0h-91.23L1035.48,780h86.95Zm-95.23,0H947L944.72,780h86.95ZM945.66,819.8H849.21l2.39-20h91.67Zm-97.83-21.86H756.6L763.21,780h86.95Zm-95.22,0H661.37L672.45,780h86.95Zm-95.23,0H566.15L581.69,780h86.95Zm-95.22,0H470.92l20-17.93h86.95Zm-95.22,0H375.7L400.17,780h86.94Zm-95.22,0H280.48L309.42,780h86.95Zm-95.22,0H185.25L218.66,780H305.6ZM43.83,819.8l42.22-20h91.67l-37.45,20Zm96.76,2.1h96.95l-36.42,22.41H98.82ZM47.24,872l47.18-25.32H197.28L156.14,872Zm109.35,2.68H266.13L226.48,903.5H110.06Zm-104.94,65,53.46-33.11H222.27l-45.55,33.11Zm125.71,3.54h125.9L260,981.65H124.89ZM57.6,1030.93l61.65-45.16H255.32l-50.87,45.16Zm248.63,58.69H145.38l60.05-53.81h148Zm167.91,0H313.29l46.65-53.81h148Zm167.91,0H481.19l33.24-53.81h148Zm167.91,0H649.1l19.83-53.81h148Zm7.05,0,6.42-53.81h148l6.42,53.81Zm167.9,0-7-53.81h148l19.83,53.81Zm167.91,0-20.39-53.81h148l33.24,53.81Zm167.91,0-33.8-53.81h148l46.64,53.81Zm328.76,0H1488.63l-47.21-53.81h148Zm87.78-58.69H1590.43l-50.87-45.16h136.07ZM1670,981.65H1534.9l-43.3-38.44h125.9Zm73.24-42H1618.16l-45.55-33.11h117.16Zm-58.4-36.18H1568.39l-39.65-28.82h109.54Zm62.82-31.5h-108.9l-41.14-25.32h102.86Zm-51.58-27.68h-102.3l-36.42-22.41h96.95Zm55-24.51H1654.6l-37.45-20h91.67Zm-46.19-21.86h-91.23L1580,780H1667Zm10.69-35.79,38.2,16.17H1667.2l-34.34-16.17Zm-86.31,0,34.17,16.17h-86.54l-30.31-16.17Zm-86.31,0,30.14,16.17h-86.54l-26.28-16.17Zm-86.31,0,26.11,16.17h-86.54l-22.25-16.17Zm-86.31,0,22.08,16.17h-86.54l-18.22-16.17Zm-86.31,0,18,16.17h-86.54l-14.19-16.17Zm-86.31,0,14,16.17h-86.54L1115,762.15Zm-86.31,0,10,16.17h-86.54l-6.13-16.17Zm-86.31,0,6,16.17H944.5l-2.1-16.17Zm-169,0h82.68l1.93,16.17H854.17ZM940.91,780,943,797.94H851.82L854,780Zm-88.44-17.86-2.1,16.17H763.83l6-16.17Zm-86.31,0L760,778.32H673.49l10-16.17Zm-86.31,0L669.7,778.32H583.15l14-16.17Zm-86.31,0-14.19,16.17H492.82l18-16.17Zm-86.31,0L489,778.32H402.48l22.08-16.17Zm-86.31,0-22.25,16.17H312.14l26.11-16.17Zm-86.31,0-26.28,16.17H221.81l30.14-16.17Zm-86.31,0L218,778.32H131.47l34.17-16.17Zm-86.31,0-34.34,16.17H41.13l38.2-16.17Z"/><g class="cls-3"><polygon class="cls-4" points="187.64 184.44 194.13 173.38 187.64 162.31 181.15 173.38 187.64 184.44"/><polygon class="cls-4" points="285.57 315.83 290.83 306.86 285.57 297.89 280.31 306.86 285.57 315.83"/><polygon class="cls-4" points="602.76 306.86 608.02 297.89 602.76 288.92 597.5 297.89 602.76 306.86"/><polygon class="cls-4" points="449.69 344.51 454.95 335.54 449.69 326.57 444.43 335.54 449.69 344.51"/><polygon class="cls-4" points="552.19 420.02 557.45 411.05 552.19 402.08 546.93 411.05 552.19 420.02"/><polygon class="cls-4" points="1369.71 135.34 1376.2 124.28 1369.71 113.22 1363.22 124.28 1369.71 135.34"/><polygon class="cls-4" points="1729.61 77.23 1734.87 68.26 1729.61 59.28 1724.35 68.26 1729.61 77.23"/><polygon class="cls-4" points="1589.24 351.71 1594.5 342.74 1589.24 333.77 1583.98 342.74 1589.24 351.71"/><polygon class="cls-4" points="1578.65 232.15 1585.14 221.08 1578.65 210.02 1572.16 221.08 1578.65 232.15"/><polygon class="cls-4" points="1219.02 40.96 1223.8 32.81 1219.02 24.65 1214.24 32.81 1219.02 40.96"/><polygon class="cls-4" points="1527.71 799.02 1532.5 790.87 1527.71 782.72 1522.93 790.87 1527.71 799.02"/><polygon class="cls-4" points="1691.87 100.55 1695.52 94.33 1691.87 88.11 1688.22 94.33 1691.87 100.55"/><polygon class="cls-4" points="1791.79 198.17 1795.43 191.95 1791.79 185.73 1788.14 191.95 1791.79 198.17"/><polygon class="cls-4" points="1400.97 423.49 1404.62 417.27 1400.97 411.05 1397.32 417.27 1400.97 423.49"/><polygon class="cls-4" points="1210.59 467.48 1214.24 461.25 1210.59 455.03 1206.94 461.25 1210.59 467.48"/><polygon class="cls-4" points="1369.71 227.3 1373.36 221.08 1369.71 214.86 1366.06 221.08 1369.71 227.3"/><polygon class="cls-4" points="1347.92 515.08 1351.57 508.86 1347.92 502.64 1344.27 508.86 1347.92 515.08"/><polygon class="cls-4" points="986.58 277.52 990.23 271.3 986.58 265.07 982.93 271.3 986.58 277.52"/><polygon class="cls-4" points="1185.59 258.85 1189.23 252.63 1185.59 246.41 1181.94 252.63 1185.59 258.85"/><polygon class="cls-4" points="1157.5 541.56 1161.15 535.34 1157.5 529.12 1153.85 535.34 1157.5 541.56"/><polygon class="cls-4" points="1069.15 212.3 1072.8 206.08 1069.15 199.86 1065.5 206.08 1069.15 212.3"/><polygon class="cls-4" points="993.87 411.05 997.52 404.83 993.87 398.61 990.23 404.83 993.87 411.05"/><polygon class="cls-4" points="618.67 715.82 622.32 709.6 618.67 703.38 615.02 709.6 618.67 715.82"/><polygon class="cls-4" points="795.95 658.2 799.6 651.98 795.95 645.76 792.3 651.98 795.95 658.2"/><polygon class="cls-4" points="911.74 515.08 915.39 508.86 911.74 502.64 908.09 508.86 911.74 515.08"/><polygon class="cls-4" points="666.3 224.53 669.95 218.31 666.3 212.09 662.65 218.31 666.3 224.53"/><polygon class="cls-4" points="538.26 252.63 541.91 246.41 538.26 240.19 534.62 246.41 538.26 252.63"/><polygon class="cls-4" points="887.01 233.52 890.66 227.3 887.01 221.08 883.37 227.3 887.01 233.52"/><polygon class="cls-4" points="781.38 271.3 785.03 265.07 781.38 258.85 777.73 265.07 781.38 271.3"/><polygon class="cls-4" points="1344.27 339.99 1347.92 333.77 1344.27 327.55 1340.62 333.77 1344.27 339.99"/><polygon class="cls-4" points="1128.65 377.04 1132.31 370.82 1128.65 364.6 1125.01 370.82 1128.65 377.04"/><polygon class="cls-4" points="543.28 835.71 546.93 829.49 543.28 823.27 539.63 829.49 543.28 835.71"/><polygon class="cls-4" points="911.74 145.25 915.39 139.03 911.74 132.81 908.09 139.03 911.74 145.25"/><polygon class="cls-4" points="421.97 74.48 425.62 68.26 421.97 62.03 418.32 68.26 421.97 74.48"/><polygon class="cls-4" points="759.58 54.22 763.23 48 759.58 41.78 755.93 48 759.58 54.22"/><polygon class="cls-4" points="228.75 212.3 232.4 206.08 228.75 199.86 225.1 206.08 228.75 212.3"/><polygon class="cls-4" points="122.74 258.85 126.39 252.63 122.74 246.41 119.09 252.63 122.74 258.85"/><polygon class="cls-4" points="16.4 105.2 20.05 98.98 16.4 92.76 12.75 98.98 16.4 105.2"/><polygon class="cls-4" points="955.27 22.13 948.78 11.06 955.27 0 961.76 11.06 955.27 22.13"/><polygon class="cls-4" points="1722.59 339.75 1717.33 330.78 1722.59 321.81 1727.85 330.78 1722.59 339.75"/><polygon class="cls-4" points="1493.17 544.31 1487.91 535.34 1493.17 526.37 1498.43 535.34 1493.17 544.31"/><polygon class="cls-4" points="1635.7 1014.29 1630.44 1005.32 1635.7 996.35 1640.96 1005.32 1635.7 1014.29"/><polygon class="cls-4" points="441.04 240.44 434.55 229.38 441.04 218.31 447.53 229.38 441.04 240.44"/><polygon class="cls-4" points="278.55 453.94 273.29 444.97 278.55 436 283.81 444.97 278.55 453.94"/><polygon class="cls-4" points="122.74 394.99 117.48 386.02 122.74 377.04 128 386.02 122.74 394.99"/><polygon class="cls-4" points="706.9 386.01 701.64 377.04 706.9 368.07 712.16 377.04 706.9 386.01"/><polygon class="cls-4" points="855.85 420.02 850.59 411.05 855.85 402.08 861.11 411.05 855.85 420.02"/><polygon class="cls-4" points="739.28 490.29 734.02 481.32 739.28 472.35 744.54 481.32 739.28 490.29"/><polygon class="cls-4" points="398.92 455.03 393.66 446.06 398.92 437.09 404.18 446.06 398.92 455.03"/><polygon class="cls-4" points="1501.82 22.13 1495.33 11.06 1501.82 0 1508.31 11.06 1501.82 22.13"/><polygon class="cls-4" points="41.07 589 36.28 580.85 41.07 572.7 45.85 580.85 41.07 589"/><polygon class="cls-4" points="557.45 552.46 552.67 544.31 557.45 536.15 562.23 544.31 557.45 552.46"/><polygon class="cls-4" points="1125.01 636.05 1120.22 627.9 1125.01 619.74 1129.79 627.9 1125.01 636.05"/><polygon class="cls-4" points="187.08 30.09 182.3 21.93 187.08 13.78 191.86 21.93 187.08 30.09"/><polygon class="cls-4" points="432.39 606.24 428.74 600.02 432.39 593.8 436.04 600.02 432.39 606.24"/><polygon class="cls-4" points="939.23 625.96 935.58 619.74 939.23 613.52 942.88 619.74 939.23 625.96"/><polygon class="cls-4" points="196.29 521.3 192.64 515.08 196.29 508.86 199.94 515.08 196.29 521.3"/><polygon class="cls-4" points="221.46 632.18 217.81 625.96 221.46 619.74 225.1 625.96 221.46 632.18"/><polygon class="cls-4" points="1014.51 562.63 1010.86 556.41 1014.51 550.19 1018.16 556.41 1014.51 562.63"/><polygon class="cls-4" points="375.02 946.47 371.37 940.25 375.02 934.03 378.67 940.25 375.02 946.47"/><polygon class="cls-4" points="1152.63 84.85 1147.77 76.55 1152.63 68.26 1157.5 76.55 1152.63 84.85"/><polygon class="cls-4" points="321.16 753.58 317.51 747.35 321.16 741.13 324.81 747.35 321.16 753.58"/><polygon class="cls-4" points="942.88 741.13 939.23 734.91 942.88 728.69 946.53 734.91 942.88 741.13"/><polygon class="cls-4" points="1706.76 658.2 1703.11 651.98 1706.76 645.76 1710.41 651.98 1706.76 658.2"/><polygon class="cls-4" points="1378.36 693.52 1374.71 687.3 1378.36 681.08 1382.01 687.3 1378.36 693.52"/><polygon class="cls-4" points="1181.94 1040.28 1178.29 1034.06 1181.94 1027.84 1185.59 1034.06 1181.94 1040.28"/><polygon class="cls-4" points="153.74 991.28 150.09 985.06 153.74 978.84 157.38 985.06 153.74 991.28"/><polygon class="cls-4" points="1475.93 348.96 1472.28 342.74 1475.93 336.52 1479.58 342.74 1475.93 348.96"/><polygon class="cls-4" points="1259.79 377.04 1256.14 370.82 1259.79 364.6 1263.44 370.82 1259.79 377.04"/><polygon class="cls-4" points="1779.4 589.01 1775.76 582.79 1779.4 576.57 1783.06 582.79 1779.4 589.01"/><polygon class="cls-4" points="606.41 82.77 602.76 76.55 606.41 70.33 610.06 76.55 606.41 82.77"/><polygon class="cls-4" points="80.79 809 77.14 802.78 80.79 796.55 84.44 802.78 80.79 809"/></g><polygon class="cls-5" points="415.64 483.61 414.55 481.06 403.16 486.79 404.25 489.33 415.64 483.61"/><path class="cls-5" d="M1800.41,735.65V595.77h-1.5V571.32c.92-.54,1.89-1.35,1.13-2.51s-2.06-1.84-2.51-3.23a2.35,2.35,0,0,0,1.62-3,5.15,5.15,0,0,0-1.75-2.39,20.56,20.56,0,0,1-3-2.75,4.68,4.68,0,0,0,2.43-3.67,6.86,6.86,0,0,0-1.5-4.61,8.91,8.91,0,0,0-2-1.83,24.63,24.63,0,0,1-2.72-2.33,11.58,11.58,0,0,1-3.32-6.44h.19a.53.53,0,0,0,0-1.05h-.16V531c.61-.25,1.22-.63,1.22-1.37a4.39,4.39,0,0,0-.77-2,3.83,3.83,0,0,0,.29-3.88,18.64,18.64,0,0,0-2-3.1,9.17,9.17,0,0,1-1.47-3.54v-7.61H1786a.63.63,0,0,0,.59.46.69.69,0,0,0,0-1.37.63.63,0,0,0-.57.4h-1.38V506.8a.69.69,0,0,0,.37-.63.61.61,0,1,0-1.21,0,.68.68,0,0,0,.42.65V509h-1.48a.63.63,0,0,0-.57-.4.69.69,0,0,0,0,1.37.64.64,0,0,0,.59-.46h1.46v7.67a6.93,6.93,0,0,1-1.2,3.5,33.1,33.1,0,0,0-2,2.92c-.75,1.44-1.06,3.4.27,4.35a9.27,9.27,0,0,0-.75,2.05c-.22,1.08.4,1.27,1.12,1.07v6.49a.52.52,0,0,0-.32.49.51.51,0,0,0,.48.53h.1c.14,4.81-3.72,7.53-6.82,10.28a7.74,7.74,0,0,0-2.92,5,3.81,3.81,0,0,0,1.54,3.6,16,16,0,0,1,.08,1.77h0a5.66,5.66,0,0,0-2.62,1.68,1.31,1.31,0,0,0-.47,1,.66.66,0,0,0,.38.47,11.52,11.52,0,0,1-2.92,3.32,9,9,0,0,0-2.61,2.88c-.9,1.81-1.15,4.48.71,5.54a17.46,17.46,0,0,0-1.9,2.1h0c-1,0-1.93.08-2.89.09l-.23-1a2.65,2.65,0,0,0,1.46-2.3,5.9,5.9,0,0,0-1.45-3.41,14.37,14.37,0,0,0-2.89-2.76c-1.25-1-2.82-2.22-2.64-4l0,0a.94.94,0,0,0,.51-.8.89.89,0,0,0-.51-.65v-2.93a1.23,1.23,0,0,0,1.1-1.25,1.14,1.14,0,0,0-.51-.92c2.13-1.82-1.77-4-2.5-5.89v-6h1.36a.63.63,0,0,0,.59.46.69.69,0,0,0,0-1.37.63.63,0,0,0-.57.4h-1.38v-2.16a.69.69,0,0,0,.37-.63.61.61,0,1,0-1.21,0,.68.68,0,0,0,.42.65v2.14h-1.48a.63.63,0,0,0-.57-.4.69.69,0,0,0,0,1.37.64.64,0,0,0,.59-.46h1.46v5.87l0,.09c0,2.22-4.24,3.52-1.82,5.83l0,0a1.17,1.17,0,0,0-.88,1,1.08,1.08,0,0,0,.9,1.17l.13,0v2.82a4.49,4.49,0,0,0-.15.54l-.15.05a.75.75,0,0,0-.34.6l.12.22.44.12a7.86,7.86,0,0,1-1.38,3.59,43.29,43.29,0,0,1-3,3.18c-1.6,1.79-2.87,4.48-.84,6.33a4,4,0,0,1-2.29.61c-.28-2.45-4.43-4.55-5.13-7v0a20.14,20.14,0,0,0-.17-3.11c.44-.09.87-.35.83-.91a1,1,0,0,0-.63-.84c1.91-1.62-1.2-3.82-1.76-5.66h0l0-.19-.07-.14v-5.59h.91a.43.43,0,0,0,.4.31.46.46,0,0,0,0-.92.42.42,0,0,0-.38.27h-.92V551a.45.45,0,0,0,.25-.42.41.41,0,1,0-.81,0,.45.45,0,0,0,.28.44v1.43h-1a.42.42,0,0,0-.38-.27.46.46,0,0,0,0,.92.43.43,0,0,0,.4-.31h1v5.62l0,.16,0,.11,0,.1,0,.28c-.54,1.78-2.76,4-1.34,5.55a1.18,1.18,0,0,0-.68,1c0,.6.46.88.93.91.1.8,0,1.63.12,2.42l0,.14-.17.17c.06,3.3-3.76,4.46-4.35,7.36a8,8,0,0,1-1.2-1.84l0-.13c0-.21-.26-.31-.31-.11l-.08.2,0,.08c-.3,1.46-1.42,2.63-1.95,4a1.9,1.9,0,0,0,1.26,2.6v1.28h-5.31c-2.56-7-12.58-12.36-25.1-13.39v-26h-.49l1.35-1.52v-1.64l.86-1.75-2.81-2.22v-2.46h-2.05v1.52l-1.41-.24v-5l1.08-2.27-1.08-.94-.65-2.81-.86-.93h-.24l-.52-22,2.27-4.79H1692l-.75-5,1.94-2.09,1-3.39-2.05-.82-1-4.91,1.73-2.22-3.92-1.67c-.78-2.23-.73-4.66-1-7a10.4,10.4,0,0,0-2.65-6c-1.46-1.58-3.12-2.92-4.61-4.45a10.91,10.91,0,0,1-2.84-4.28c1-.14,1.65-.37,1.65-.61s-.39-.37-1-.51v-6.37c1.29-.26,2.12-.66,2.12-1.11s-1.07-1-2.67-1.2a4,4,0,0,1-.93-1.93,2.54,2.54,0,0,1,.46-1.72,3.19,3.19,0,0,0,.37-2.45c-.45-1.24-1.54-2-2.31-2.93a1.16,1.16,0,0,0,.12-.4,1.18,1.18,0,0,0-.64-1.22v-.65a.93.93,0,0,0,0-1.72v-4.78h1.35a.63.63,0,0,0,.59.47h.2a.68.68,0,0,0,0-1.34h-.2a.62.62,0,0,0-.51.29h-1.42v-2.62a.68.68,0,0,0,.45-.63.69.69,0,0,0-.71-.67h-.1a.69.69,0,0,0-.7.67.67.67,0,0,0,.45.63v2.62h-1.43a.62.62,0,0,0-.51-.29h-.19a.68.68,0,0,0,0,1.34h.19a.63.63,0,0,0,.59-.47h1.35v4.78a.93.93,0,0,0,0,1.72v.65a1.17,1.17,0,0,0-.64,1.22,1.25,1.25,0,0,0,.12.4c-.76,1-1.87,1.69-2.31,2.93a3.17,3.17,0,0,0,.37,2.45,2.55,2.55,0,0,1,.46,1.72,4,4,0,0,1-.93,1.93c-1.6.25-2.67.69-2.67,1.2s.84.85,2.13,1.11v6.37c-.65.14-1,.31-1,.51s.65.47,1.66.61a11,11,0,0,1-2.85,4.28c-1.49,1.54-3.15,2.87-4.61,4.45a10.38,10.38,0,0,0-2.65,6c-.31,2.38-.25,4.81-1,7l-3.91,1.67,1.73,2.22-1,4.91-2.05.82,1,3.39,1.93,2.09-.74,5h-2.17l2.27,4.79-.51,22h-.24l-.86.93-.65,2.81-1.08.94,1.08,2.27v5l-1.4.24v-1.52h-2.06v2.46l-2.81,2.22.87,1.75v1.64l1.35,1.52h-.49v6h1.09v19.18l-2.81,2.92,2,3-.56-.1h-2.49l-3.24,1.64v2.57l-2.7,2.34,1.3,2.57,1,.42-.48.16.87,1.7v4l-.87.4,1.52,2.25v10.17l-28.38-8.38h-4.54l-11.84-7.1v-6.32l-2-1.14-2.35,1.14v5.44l-1.09,2.14-17.64,4.5V587l-2-1.14-2.35,1.14v5.44l-.89,1.75-2.09,1.63-1.31-1.63-10.06,4-7.38,4.26v-.92h-1.38v1.05h-1v1.23l-1.16.67a124.41,124.41,0,0,0-115.74-78.55c-67.12,0-121.79,53-124.27,119.33-1-.15-2-.31-3-.48-7.81-1.35-15.19-3.35-22.74-5.1l-2.35-9.7-1.34-.67-2.82-.54-4.15-18.16c0-.31-1.5-.59-3.92-.79v-3.35c.22-.07.33-.14.33-.22s-.55-.32-1.51-.45l1.28-26.82h.64l.3-4.73h1.5V558.8a3.49,3.49,0,0,1,.62-.66,1.31,1.31,0,0,1,.83-.29h.07l.1,0,0-.1v-.08h0v-.38c0-.88.08-1.76.08-2.64,0-.16,0-.33,0-.49,0-.54-.08-1.1-.08-1.65a5.08,5.08,0,0,1,.07-.9,4.52,4.52,0,0,0,.92-.62.84.84,0,0,0,.32-.64,1.44,1.44,0,0,0-.14-.56c-.07-.16-.15-.33-.22-.49a3.73,3.73,0,0,0,1.14-1.57l.06-.34a1.63,1.63,0,0,0-.24-.78c-.13-.23-.29-.45-.43-.66a1.42,1.42,0,0,0,.41-1v0a5.44,5.44,0,0,0-.16-.91,14.92,14.92,0,0,1,1.5-1.93,6,6,0,0,0,1.13-2.11,15.53,15.53,0,0,0,.46-1.81,20.05,20.05,0,0,0,2.95-2.84,9.6,9.6,0,0,0,2.32-4.7V519.67h-.14l.05-.07-.09,0a15.17,15.17,0,0,0-5.83-1,14.55,14.55,0,0,0-6,1.06l-.09,0,.07.08,0,0v10.5a9,9,0,0,0,1,3.8,12.09,12.09,0,0,0,1.61,2.08c-.06.14-.13.28-.18.42a3.54,3.54,0,0,0-.23.89,10.16,10.16,0,0,1-.1,1.11c-.4.26-.82.5-1.21.78a3.25,3.25,0,0,0-1.1,1.13,2.23,2.23,0,0,0-.93.36l-.31,0H1268l-.09,0h0l-.21.16a3.72,3.72,0,0,1-.92.32,1.39,1.39,0,0,0-.44.21.89.89,0,0,0-.29.39.85.85,0,0,0-.46.22.9.9,0,0,0-.25.45,2.14,2.14,0,0,0-1-.27,1.5,1.5,0,0,0-1.24.61c-.48,0-1-.07-1.45-.1a28.09,28.09,0,0,1-.65-4.36h0a.82.82,0,0,0,.38-.08.7.7,0,0,0,.3-.32,2.33,2.33,0,0,0,.17-1l.22-.07.19-.3.06-.32.21,0,.08-.06,0-.08v-.16a2.52,2.52,0,0,0-.08-.63v0a1,1,0,0,0,.12-.48,1,1,0,0,0-.24-.64l0-.29a1.32,1.32,0,0,0-.5-1,1.15,1.15,0,0,0-.78-1.07l-.12-.34a.94.94,0,0,0-.49-.31,2.23,2.23,0,0,0-.62-.08h0a1.22,1.22,0,0,0-.92-.4,2,2,0,0,0-.72.15l-.07.06h-.14a1.24,1.24,0,0,0-.94.45l0,.08a1.79,1.79,0,0,0-.77.17.65.65,0,0,0-.29.25l-.09.34a1.11,1.11,0,0,0,.13.49.85.85,0,0,0-.47.23.7.7,0,0,0-.22.51l0,.25a1,1,0,0,0-.19.39v0l0,.08,0,.2a1,1,0,0,0,.27.71,1.24,1.24,0,0,0-.27.74l0,.26a.68.68,0,0,0,.32.43.94.94,0,0,0,.46.12,3.55,3.55,0,0,0,.51,1.8c-.19,1.4-.17,2.82-.36,4.21l-1.54,0a4.4,4.4,0,0,0-2.32-2.1,5.83,5.83,0,0,0-2.82-2.71c-.58-.75-1.2-1.48-1.82-2.19a20.27,20.27,0,0,0-1.89-5A75.86,75.86,0,0,1,1242,524l.19-.24a1.86,1.86,0,0,0,.3-1.07l0-.36c0-.3-.05-.68-.1-1.06a2.93,2.93,0,0,0-.26-.93h1.31v-1.21l-1.43-.82.34-23-1.36-1.2-1.51,1.2-.81,23-1.58,1v1h1l-.05.29a.76.76,0,0,0,.11.4,1.57,1.57,0,0,0-.38.93.72.72,0,0,0,.19.51,1.34,1.34,0,0,0-.09.46.64.64,0,0,0,.16.46l0,.35a2.2,2.2,0,0,0,.52,1.31,6.57,6.57,0,0,0,1,1c.67,2.1,1.1,4.3,1.78,6.42a13.36,13.36,0,0,0,2.91,5.19c.36,1.79,1.47,3.27,2.26,4.83-.21.69-.57,1.33-.84,2v0l0,.11.28.28a4.61,4.61,0,0,0-.16,1.07,2.17,2.17,0,0,0,0,.46,1,1,0,0,0,.31.53,2.53,2.53,0,0,0,.44.33c-.07.63-.2,1.26-.24,1.91h0l0,.09.07,0a7.91,7.91,0,0,1,1.12.47c-.09,1.09-.17,2.19-.24,3.28-.08,1.29-.22,2.58-.31,3.87,0,.31,0,.61,0,.92s0,.57,0,.86c0,.11,0,.28,0,.45a.87.87,0,0,0,.15.45,1,1,0,0,0,.44.27c.16.06.33.11.44.16l.67.35-.3,18.56,1.41.1.29,26.53c-1.39.15-2.22.33-2.22.54s.08.12.22.18h0v3.34c-2.83.21-4.61.51-4.61.85l-5,18.45-3.22.61-1.34.31-3.1,10c-12.53,2.59-24.51,6-37,8.7-12.78,2.78-26.31,4-38.76,7.35-3.19.85-6.27,1.81-9.26,2.84l-75.08,4.78-394-155.44q-.24-10.13-.12-20.18c-2.32-.12-3.14-.92-5.46-1-2.32.12-6.35.24-8.67.36q.66,13.68.76,27.43L497.57,700.52l-24.22,1.59a15,15,0,0,0-12.21-6.19h-7v-218h-3.41V442.65H446.4v33.52h-1.5V472L404.76,490.8l2.46,1.63v2.36h-6.13v-4h-1v-4.43H382v4.43h-.82v4h4v5.76h-6.28V683.67H371.1a22.74,22.74,0,0,0-21.5-16,22,22,0,0,0-6.29.93l-19.15-48.07h2.17v-2.71h-4.66v-1.36h3.94v-6.59h-3.94v-2.33h3.94V606h-3.94V570.54h1.79v-1.36h-1.79v-3.88H325v-2.13h-3.32V530.68h1.7v-1.94h-1.7V510.22h1.25v-1.94h-1.25v-1.07h1.7V504.5h-1.7v-1.65h2.6V501h-2.6v-1.36h1.25l1.35-11.44-6.36-1.55V454.47c1.44-.48,2.33-1.16,2.33-1.9,0-1.16-2.17-2.14-5.19-2.51l-.67-31.27c1.45-.29,2.45-.9,2.45-1.62s-1-1.35-2.52-1.63l-.58-27c1.29-.21,2.21-.74,2.21-1.36s-.94-1.17-2.26-1.37l-.44-20.49c1.44-.15,2.53-.75,2.53-1.47s-1.11-1.33-2.59-1.47l-.25-11.5a2,2,0,0,0,1.89-1.76,2,2,0,0,0-2.1-1.78l-.13-13.79a1.4,1.4,0,1,0,0-2.8l0-3.05h0v0h0l0,3a1.4,1.4,0,1,0,0,2.8l-.13,13.79a2,2,0,0,0-2.09,1.78,2,2,0,0,0,1.89,1.76l-.25,11.5c-1.48.14-2.59.75-2.59,1.47s1.08,1.32,2.52,1.47l-.44,20.49c-1.32.2-2.26.74-2.26,1.37s.92,1.15,2.2,1.36l-.58,27c-1.49.28-2.52.91-2.52,1.63s1,1.33,2.45,1.62L310,450.06c-3,.37-5.19,1.35-5.19,2.51,0,.74.89,1.42,2.33,1.9v32.18l-6.37,1.55,1.35,11.44h1.26V501h-2.6v1.84h2.6v1.65h-1.7v2.71h1.7v1.07H302.1v1.94h1.26v18.52h-1.7v1.94h1.7v32.49H300v2.13h3.32v3.88h-1.79v1.36h1.79V606h-3.95v1.56h3.95v2.33h-3.95v6.59h3.95v1.36H298.7v2.71h2.17l-18,45.09h-1.33v2.53c-1-1-2-2-2.9-3.1v-4.45h-2.9v.76a85.88,85.88,0,0,1-7.12-11.94l-2.25,24.69V644.85h-.49v-2.27h-3.17v2.27h-66v-2.9h-3.17v2.9h-.23v28.93l-2-24.3a88,88,0,0,1-7,11.82v-.9h-2.91v4.65q-1.42,1.69-2.9,3.18v-2.81h-2.9v5.49c-1.07.91-2.17,1.75-3.3,2.54v-2.51h-3.43v4.7c-1.4.81-2.85,1.56-4.35,2.26v-3.44h-3.17v4.78a43.35,43.35,0,0,1-4.22,1.39v-3h-2.64v3.66a37.29,37.29,0,0,1-4.75.65v-2.31H148.2V515.31L51.88,533V684L48.86,530l25.31-4.68-61.56-9.66v195H.35v23.18H-2.22v26.05H1800.41m-538.05-224v.18h0Zm-16.28,8.23c0,.15,0,.31-.08.47l0,0,0-.09.06-.2.07-.17Zm440.69-43.41c0-1.58.63-2.86,1.41-2.86s1.41,1.28,1.41,2.86v22.87l-2.81-.29Zm-9.51-.58a2.33,2.33,0,1,1,4.54,0V523l-4.54-.29Zm-10.7,0a2.33,2.33,0,1,1,4.54,0v22.57l-4.54.29Zm-6.71,1.05c0-1.58.63-2.87,1.4-2.87s1.41,1.28,1.41,2.87v22.57l-2.81.29Zm-227,45.72c46.54,0,85.43,35.18,95.09,82.19l-8.14-4.81-18.17,4-8.11-4.91-28.28,4v-6h.08a1.33,1.33,0,0,0,.21-2.51,3.65,3.65,0,0,0-.07-4.17,10,10,0,0,0-2.21-2.08.8.8,0,0,0,.09-.82.85.85,0,0,0-.5-.34v-3.76c.54,0,1.13-.36,1-1a1.24,1.24,0,0,0-.89-.91,2.6,2.6,0,0,0,.34-3.64c-.51-.73-1.19-1.28-1.75-1.95a4.19,4.19,0,0,1-1-2.81l-.06-.13v-6.75h1a.49.49,0,0,0,.46.35.53.53,0,0,0,0-1.05.48.48,0,0,0-.44.31h-1.06v-1.67a.53.53,0,0,0,.28-.48.47.47,0,1,0-.93,0,.52.52,0,0,0,.33.5v1.65h-1.14a.48.48,0,0,0-.44-.31.53.53,0,0,0,0,1.05.49.49,0,0,0,.46-.35h1.13v6.74l-.08.15a4.18,4.18,0,0,1-1,2.81c-.57.67-1.24,1.22-1.75,1.95a2.59,2.59,0,0,0,.33,3.64,1.23,1.23,0,0,0-.89.91c-.16.68.43,1,1,1v3.76a.86.86,0,0,0-.5.34.8.8,0,0,0,.09.82,10.07,10.07,0,0,0-2.21,2.08,3.65,3.65,0,0,0-.06,4.17,1.33,1.33,0,0,0,.21,2.51h.09v6.71l-.27,0,.15.45c-10.42.13-20.83.25-31.19.63-15.61.57-31.84,1.48-46.58,4.6-12.54,2.66-23.83,6.86-36.25,9.67-1.8.41-3.62.75-5.45,1.05C1339.2,590,1381.33,547,1432.82,547ZM1104.07,679.33q-3.94,2.48-7.8,5c-8.79,5.72-17.37,11.55-26.21,17.24-19.33,12.46-40.47,24.69-66.81,32.29H702.46q-1.84-17.48-4.28-35.55ZM663.19,535.68c0,1,0,2-.05,3l-58.4,68.4-20.81,18.4,35.41-45.6Zm-34.13,31.66,34.25-44.11q0,4.67-.07,9.34Zm34-25.52q-.17,7-.45,14.07l-49.26,43.55Zm-66.93,75.32-63.44,74.3,45.64-58.77Zm7.91-6.89,58.43-51q0,1.06-.09,2.13l-133,135.41Zm58.19-45.5c-2,42.5-6.57,84.8-10.93,125.67l-122.24,8Zm1,146.31c3.33-5.57,9.35-6.24,15.44-5.92,3.14.16,6,.91,8.13,3.59a15,15,0,0,1,2.12,4q1.09,10.59,2,21.13H661.36Q662.33,722.47,663.24,711.06Zm289.17-39.91-19.91,1.27L677.94,534.33l0-.33ZM677.77,531.75q-.55-9.12-.84-18.2l366.52,151.81L956.3,670.9ZM928.56,672.67l-104.13,6.63L679.78,558q-1-10.59-1.69-21.15Zm-106.4,6.77-17.08,1.09-125-119.18c0-.39-.07-.78-.11-1.18ZM803,680.65,696.7,687.42c-5.56-40.18-12.29-82-16.37-123.78ZM1065.22,664l-16.46,1L676.85,511v-.23ZM672.48,570.6c1,.46,2,6,2.37,10.63a4.21,4.21,0,0,0,.1.47c3,35.59,7.41,71.14,11.32,106.41l-21.4,1.41c2.53-34.75,4.5-69.68,5.61-104.7C670.47,585,670.11,570.95,672.48,570.6Zm-9.17-52.47c0,.49,0,1,0,1.49l-45.19,58.86L508.78,689.69ZM609.24,590,578,630.67l-74.53,65.89Zm-36.42,47.44-47,61.18-25.07,1.65Zm-232,31.31-1.31,1.37c-.62.32-1.23.66-1.81,1L335.8,669l5-.18Zm-.39-1-4.33.16,3.14-3.28Zm-1.57-4.13-4,4.2-3.42-4,7.41-.27Zm-.42-1.1-6.15.23,4.46-4.66Zm-7.55.28h-.31l-4.37-5.13,9.93-.36Zm5.19-6.5-9.71.36,7-7.36Zm-12.21-32.11,4.64,12.2-4.64,4.84Zm0,18.46,5-5.25,3.6,9.46-8.62.32Zm0,5.55,9-.33.16.41-7.85,8.2L323.88,655Zm0,10.34,11.87,14.05a23.4,23.4,0,0,0-7.64,11.06h-2.47v-6.2h-1.75Zm-2.2-38h1l-.09.2.54,1.41v19.87l-1.43,1.5Zm0,24.39,1.43-1.5v3.76l-1.43.05Zm0,3.33,1.43-.05v5.81l-1.43-1.69Zm0,7.65,1.43,1.7v19.83H323V680c-.44.15-.89.28-1.34.41Zm-3.77-156.3h3V501h-3Zm0,3.2h3v1.65h-3Zm0,4.36h3v1.07h-3ZM320.34,606l-2.11-3.5,2.67-4.21V606Zm.56,3.39v.49h-.31Zm-2.17-40.24,2.17-3.42v3.42Zm2.17,1.36v3.87l-2.32-3.87Zm-.08-7.37-2.59-4.31,2.67-4.21v8.51Zm-2.91-52.95h1.71l-1.71,2.69Zm3,0v8.65l-2.67-4.44Zm-3,5.59,2.52,4.19-2.52,4Zm3,5.51v7.39h-.76l-1.91-3.18Zm-3,5.59,1.08,1.79h-1.08Zm0,3.73h2.24l.28.46-2.52,4Zm3,1.77v8.65l-2.67-4.44Zm-3,5.6,2.52,4.19-2.52,4Zm3,5.51v8.65l-2.67-4.44Zm-3,5.59,2.52,4.2-2.52,4Zm0,11.1,1.75,2.92h-1.75Zm0,5.05h2l-2,3.11Zm0,6,2.29,3.81-2.29,3.61Zm3,4.76v8.65l-2.67-4.44Zm-3,5.6,2.52,4.19-2.52,4Zm3,5.5v8.65l-2.67-4.44Zm-3,5.6,2.52,4.19-2.52,4Zm0,11.1,1.27,2.12h-1.27Zm0,3.67h2.2l.31.52-1.14,1.8h-1.37Zm0,8.92h3v1.36h-3Zm2.24,31.85-.77,1.32-1-1.23,0,0Zm-.77-1,1-1,.46.84-.09.16ZM320.9,655v1.26l-2-3.59Zm-.82-4.53.82-1.42v2.38Zm.47-5.78-1.68-3.06,2-3.51v6.2Zm.35-24.14v2.93l-1.61-2.93Zm-3,.9.43-.74,2.51,4.57-2.54,4.39-.39-.72Zm3,5.75v7.21l-2-3.7Zm-3,5.17.43-.74,2.51,4.57-2.54,4.39-.39-.72Zm0,10.93.43-.74,1.55,2.83-1.91,2h-.07Zm0,10.93.43-.74,2.3,4.2-2.34,4-.39-.72Zm3,5v7.21l-2-3.7Zm-3,5.17.43-.74,2.5,4.57-2.54,4.39-.39-.72Zm3,5.75v7.21l-2-3.7Zm-3,5.17.43-.74,2.5,4.57-.93,1.61-.32.08v-1.43h-1.68ZM316,454.94c.39-.07.76-.15,1.11-.24v3l-1.45-2.29ZM315.79,679l1.34-2.32v2.76h-.19v1.66Zm.28,2.41-.26,0V681Zm-.3-4.4-.07-7.19,1.43,2.61v2.22Zm0-8.93,1.34-2.32v4.77Zm-.12-1.82-.07-7.55,1.53,2.8v2.22Zm.33-8.73,1.14-2v4Zm-.42-1.31-.07-7.6.44.52,1.19,2.17v2.22Zm.74-10.16.82-1.42v2.39Zm-.7-.82-.14-.16-.07-7.85,1.73,3.16v2.22Zm.18-9.21,1.34-2.32v4.77Zm-.41-1.32-.08-8.6,1.84,3.35v2.22Zm-.09-9.7v-1l.13.51Zm.5.09,1.34-2.32v4.77Zm-.51-1.15,0-3.39h1.89v.19Zm-.06-6.11v-1.36h1.93v1.36Zm.78-8-.87-1.44v-.88h2v2.33Zm0-3.88,1.12-1.77V606Zm-.9-.64-.06-6.23,2,3.25Zm-.08-8.2v-.71l2.11-3.33v7.54Zm0-2.74-.06-6.57,2.06,3.42Zm-.08-8.53v-.38l2.21-3.49v7.54Zm.4-123.69,1.66,2.62-1.68,2.51-1.5-2.37v-.49Zm-1.54,1.13,0-3.61,1.19,1.88ZM315,467.9l-1.1,1.64,0-3.43Zm.38.6,1.66,2.62-1.68,2.52-1.44-2.27v-.67Zm-.38,5.67-1,1.56,0-3.25Zm.38.6,1.66,2.62-1.68,2.52-1.38-2.18v-.84Zm-.38,5.67-1,1.47,0-3.08Zm.38.6,1.66,2.62-1.6,2.39-.19,0L314,484.08v-1Zm-1.07,20,.91-1.36h.32l.86,1.36Zm2.18,1.84-1.1,1.65h-.05l-1-1.65Zm-2.06-17.06-.38-.09v-.51Zm0,13.86-.25.38v-.38Zm.2,4.85h-.42v-.67Zm-.29,2.71h2l.68,1.07h-2.47l-.12-.21-.05.21h-.14v-.92Zm.23,3,2.48,4.12-2.7,4.25-.08-8.37Zm-.14,9-.07.29v-.57Zm2.61,6.21-2.09,3.3h-.51l-.07-7.75Zm-.44,45.1-1.75,2.76,0-2.76Zm-1.79-1.36,0-3.09,1.86,3.09Zm.13,14.33-.06-6.9,2.16,3.6ZM315,575l2.1-3.31v6.8Zm.4-9.7h1.7v2.83Zm-.73-2.95-.07-7.54,2.36,3.93Zm.79.81,1.63-2.58v2.58Zm-.69-10,2.33-3.67V557Zm-.2-1.75-.07-7.88,2.47,4.1Zm.2-9.35,2.33-3.67v7.54Zm-.3-1.59-.08-8.21,2.57,4.28Zm.3-9.51.18-.28h2.15v4.15Zm1.41-2.22.92-1.45v1.45Zm-1.41-8.88,2.33-3.67v7.54Zm.88-9.64h1.45v2.41Zm1.32-3h.13v.21Zm-.89-2.71,1-1.53v1.53ZM317,501l-.86-1.36h1V501Zm-1-14.81,1.08-1.61v1.87Zm-.37-5.71,1.45-2.17v4.45Zm0-6.26,1.45-2.17v4.45Zm0-6.27,1.45-2.16v4.45Zm0-6.26,1.45-2.16V464Zm-.36-5.73,1.66,2.62-1.68,2.52-1.56-2.46v-.31Zm-.54-.86.16.26-1.22,1.82,0-2Zm-1-36.22.39,31.08-.5,0-.29-31Zm0-3.44-.38,0-.25-26.82.28,0Zm-.38-29.7-.28,0-.19-20.4h.2Zm-.44-34.89.15,11.49h-.19l-.11-11.47Zm-.78,0h.15l-.11,11.47H312Zm-.18,14.45h.2l-.19,20.4-.27,0Zm-.3,23.25.28,0-.25,26.82-.38,0Zm-.39,30.32.39,0-.29,31-.5,0Zm-1,36.22,1.07.09,0,2-1.21-1.82Zm1,3.22v.31l-1.56,2.46L308,458.59,309.7,456Zm-2.86,110.84,1.86-3.09,0,3.09Zm1.82,1.36,0,2.76-1.75-2.76Zm.4-51.31.08-.28v.57Zm.06,1.76-.07,7.75h-.51l-2.09-3.3ZM308,514.35l2.48-4.12h.3l-.08,8.37Zm2.65-6.06-.05-.21-.12.21H308l.68-1.07h2l.1.14v.92Zm.11-5.43-1,1.65h-.05l-1.1-1.65ZM308.68,501l.86-1.36h.32l.91,1.36Zm1.76,3.49.42-.67v.67Zm.2-4.85h.26V500Zm0-13.86.38-.61v.51Zm-.82.2-.19,0-1.6-2.39L309.7,481l1.36,2v1Zm.25-5.56,1-1.6,0,3.08Zm-.35-.53L308,477.39l1.66-2.62,1.42,2.11v.84Zm.35-5.73,1.07-1.7,0,3.25Zm-.35-.53L308,471.12l1.66-2.62,1.47,2.2v.67Zm.35-5.73,1.13-1.79,0,3.43Zm-.35-.53L308,464.86l1.66-2.62,1.53,2.28V465Zm.35-5.73,1.19-1.88,0,3.61Zm-2.18-6.94c.35.09.72.17,1.11.24l.34.5-1.45,2.29Zm0,4.84,1.45,2.16L307.9,464Zm0,6.26,1.45,2.16-1.45,2.29Zm0,6.26,1.45,2.17-1.45,2.29Zm0,6.26,1.45,2.17-1.45,2.29Zm0,6.27L309,486.2l-1.08.26Zm0,15.05h1L308,501h-.09Zm0,3.32,1,1.53h-1Zm0,4.24H308l-.13.21Zm0,3h1.45l-1.45,2.41Zm0,6,2.33,3.67-2.33,3.87Zm0,11.1.92,1.45h-.92Zm0,3.39H310l.18.28-2.33,3.88Zm2.71,1.58-.08,8.21L308,536.55Zm-2.71,6.13,2.33,3.67-2.33,3.87Zm2.6,5.15-.07,7.88L308,547.65Zm-2.6,6,2.33,3.67L307.9,557Zm2.5,5.32-.07,7.54L308,558.75Zm-2.5,5.78,1.63,2.58H307.9Zm0,4.71h1.7l-1.7,2.83Zm0,6.39L310,575l-2.1,3.5Zm2.29,4.92-.06,6.9-2.1-3.3Zm-2.29,5.45,2.21,3.49v.38l-2.21,3.68Zm2.19,5.83-.06,6.57-2-3.14Zm-2.19,5.27,2.11,3.33v.71l-2.11,3.51Zm2.09,6-.06,6.23-1.89-3Zm-2.09,5.1L309,606H307.9Zm0,3.33h2v.88l-.87,1.44H307.9Zm0,8.92h1.93v1.36H307.9Zm0,4.07h1.89l0,3.39-1.86-3.21Zm1.86,3.41v1l-.12-.53Zm-1.86-1.18,1.34,2.32-1.34,2.45Zm0,6.67,1.84-3.35-.08,8.6-1.76-3Zm0,4.25,1.34,2.32-1.34,2.45Zm0,6.68,1.74-3.16-.07,7.85-.14.16-1.52-2.63Zm0,4.25.82,1.42-.82,1Zm0,6.68,1.19-2.17.44-.52-.07,7.6-1.56-2.69Zm0,4.25,1.14,2-1.14,2.08Zm0,5.95,1.53-2.8-.07,7.55-1.47-2.53Zm0,4.25,1.34,2.32-1.34,2.45Zm0,6.68,1.43-2.61-.07,7.19-1.37-2.36Zm0,4.25,1.34,2.32L308,681.31l-.1,0Zm1.33,4.25v.46l-.24,0Zm-5.09-181.32h3V501h-3Zm0,3.2h3v1.65h-3Zm0,4.36h3v1.07h-3ZM305.86,606l1.27-2.12V606Zm1.27,1.56v2.33h-1.37l-1.32-2.07.17.27.31-.52Zm-1.75-44.42,1.75-2.92v2.92Zm1.75,2.13v3.11l-2-3.11ZM306,528.75l1.08-1.79v1.79Zm1.08,1.94v4.43l-2.52-4,.28-.46Zm0-20.46v2.69l-1.71-2.69Zm-3,0,2.67,4.21-2.67,4.44Zm3,5.59V524l-2.52-4Zm-3,5.51,2.67,4.21-1.91,3.18h-.76Zm0,11.1,2.67,4.21-2.67,4.44Zm3,5.6v8.16l-2.52-4Zm-3,5.51,2.67,4.21-2.67,4.44Zm3,5.59v8.17l-2.52-4Zm-3,5.5,2.67,4.21-2.58,4.31h-.08Zm0,11.1,2.17,3.42h-2.17Zm0,4.78h2.32l-2.32,3.87Zm3,.81v7.42l-2.29-3.61Zm-3,4.76,2.67,4.21-2.67,4.44Zm3,5.6v8.16l-2.52-4Zm-3,5.5,2.67,4.21-2.67,4.44Zm3,5.6V601l-2.52-4Zm-3,5.5,2.67,4.21-2.1,3.5h-.56Zm0,11.1.31.49h-.31Zm0,7.09h3v1.36h-3Zm.81,61.34,1.75-3.2.43.74v5.78c-.51-.08-1-.15-1.53-.25v-3.06Zm1.79-5.17-2.54-4.39,2.51-4.57.43.74V672Zm0-10.93-2.34-4,2.3-4.2.43.74V661Zm0-13.36-1.1,1.29-.79-1.36Zm-2.48-1.11-.07-.12.76-1.38,1.52,1.59Zm1.18-2.41,1.26-2.29.43.74v3.31Zm1.29-4.26-2.54-4.39,2.51-4.57.43.74v7.5Zm0-10.93-2.54-4.39,2.51-4.57.43.74V629Zm-2.6-9.11h1.6l-1.6,2.93Zm0,6.65,2,3.5-2,3.7Zm0,10.93,2,3.51-1.38,2.52-.65-.68Zm0,6.77.16.16-.16.28Zm0,4.17.82,1.42-.82,1Zm0,5.95,2-2.33-2,3.59Zm0,4.25,2,3.5-2,3.7Zm0,10.93,2,3.5-2,3.7Zm-2.2-48,.54-1.41-.09-.2h1V642.7l-1.44-1.5Zm0,20.43,1.44,1.5v3.13l-1.44-.05Zm0,5.6,1.44.05v4.1l-1.44,1.69Zm0,9.43,1.44-1.7v21.9H303v2.45l-1-.3Zm-.77-33.44V640.4l-4.4-4.6Zm-4.79,12.6,4.79,5v5.36l-8.61-.32Zm4.79,11.38V655l-.93,1.09-7.83-8.18Zm-5.59,26.52v2.9c-1.51-.69-3-1.42-4.36-2.21V671.2h-.72l10.67-12.64v21.21c-.8-.25-1.61-.53-2.42-.83v-4.22Zm-8.67-11.17,6.74.25-3.06,3.6Zm2.81-6.21,9.14.33-4.15,4.88Zm2.14-8.63,7.63,8L289,656.29Zm-3.34,8.79,5,5.27-6.95-.25ZM286,664l3.72,3.89-5.13-.19Zm3.24,4.89-1.93,2.27L285,668.78Zm-4.78.71,2.21,2.3-.29.34c-.65-.47-1.29-1-1.92-1.48ZM476,716.75v-6.41l0-.34,174.18-9.17q-1.77,16.71-3.38,33h-115l-21.24-15.45a8.69,8.69,0,0,0-5.11-1.66Z"/></svg>