<svg id="Layer_1" data-name="Layer 1" xmlns="http://www.w3.org/2000/svg" viewBox="0 0 163 143"><defs><style>.cls-1{fill:#fff;}</style></defs><title>React_Kyiv__Symbol__white</title><path class="cls-1" d="M133.43,46.09q-2.5-.86-5.17-1.63.44-1.79.8-3.53c3.92-19,1.36-34.32-7.39-39.36-8.38-4.83-22.09.21-35.94,12.26q-2,1.74-4,3.67Q80.39,16.22,79.06,15C64.55,2.15,50-3.28,41.27,1.78,32.9,6.63,30.42,21,33.94,39q.51,2.61,1.19,5.32c-2.06.58-4,1.21-5.95,1.87C12.17,52.16,1.3,61.46,1.3,71.1c0,10,11.66,19.95,29.38,26q2.1.72,4.34,1.36-.73,2.93-1.26,5.74C30.41,121.9,33,136,41.39,140.78c8.63,5,23.11-.14,37.21-12.46q1.67-1.46,3.35-3.09,2.18,2.1,4.34,4c13.66,11.75,27.15,16.5,35.49,11.67,8.62-5,11.42-20.09,7.78-38.46q-.42-2.1-1-4.3,1.53-.45,3-.93C150,91.06,162,81.19,162,71.1,162,61.42,150.78,52.07,133.43,46.09ZM90.23,19c11.86-10.32,23-14.4,28-11.49,5.38,3.1,7.47,15.62,4.09,32q-.32,1.57-.72,3.19a164.45,164.45,0,0,0-21.49-3.39,161.26,161.26,0,0,0-13.58-17Q88.39,20.61,90.23,19ZM52.39,71.27c2.08-4.32,4.36-8.66,6.84-13h0c2.48-4.3,5.09-8.45,7.79-12.4,4.78-.36,9.68-.55,14.63-.55h0c5,0,9.88.19,14.66.55,2.66,3.92,5.25,8.06,7.74,12.36s4.83,8.66,6.93,12.89c-2.09,4.3-4.4,8.66-6.9,13S99,92.69,96.37,96.62c-4.77.34-9.69.52-14.72.52S71.79,97,67.1,96.67c-2.72-4-5.36-8.15-7.85-12.46h0C56.76,79.91,54.47,75.58,52.39,71.27Zm-3.64,8.07q2.16,4.17,4.56,8.31h0q2.44,4.22,5,8.25a146.12,146.12,0,0,1-14.81-2.38C45,88.94,46.71,84.18,48.75,79.34Zm0-16.15c-2-4.74-3.71-9.4-5.11-13.9,4.58-1,9.47-1.86,14.57-2.5q-2.53,3.95-4.93,8.1h0Q50.9,59,48.74,63.19ZM110,87.61q2.46-4.26,4.66-8.51a145.64,145.64,0,0,1,5.4,14.14,145.86,145.86,0,0,1-15,2.56Q107.59,91.82,110,87.61Zm4.6-24.41Q112.43,59,110,54.84t-4.89-8c5.13.65,10,1.51,14.65,2.56A146.63,146.63,0,0,1,114.62,63.2ZM81.73,27.3a146.75,146.75,0,0,1,9.46,11.42q-4.71-.22-9.53-.23t-9.46.22C75.31,34.6,78.51,30.77,81.73,27.3Zm-37-19.58C50.09,4.61,62,9,74.51,20.17q1.2,1.07,2.41,2.23A164.45,164.45,0,0,0,63.23,39.34a167.78,167.78,0,0,0-21.44,3.33q-.63-2.52-1.1-5C37.66,22.29,39.67,10.64,44.71,7.72ZM36.88,91.85q-2.05-.59-4-1.24c-7.84-2.68-14.31-6.16-18.74-10-4-3.41-6-6.8-6-9.55,0-5.85,8.72-13.31,23.27-18.39,1.77-.62,3.61-1.2,5.53-1.74a164.55,164.55,0,0,0,7.83,20.3A167.25,167.25,0,0,0,36.88,91.85Zm37.2,31.29c-6.23,5.45-12.48,9.32-18,11.26-4.95,1.75-8.89,1.8-11.27.42-5.07-2.92-7.18-14.21-4.3-29.35q.49-2.6,1.17-5.33a161.44,161.44,0,0,0,21.66,3.13,167.12,167.12,0,0,0,13.79,17Q75.6,121.81,74.08,123.14Zm7.84-7.76c-3.25-3.51-6.5-7.39-9.67-11.57q4.62.18,9.4.18t9.7-.22A146,146,0,0,1,81.92,115.38Zm41.69,9.55c-1,5.16-2.88,8.6-5.26,10-5.06,2.93-15.89-.88-27.57-10.93q-2-1.73-4-3.68a161.27,161.27,0,0,0,13.47-17.1A160.24,160.24,0,0,0,122,99.84q.49,2,.87,3.89C124.44,111.85,124.67,119.19,123.61,124.94Zm5.83-34.29q-1.32.44-2.7.84a161,161,0,0,0-8.14-20.36,161,161,0,0,0,7.82-20.06q2.47.71,4.78,1.51c14.87,5.12,23.94,12.69,23.94,18.52C155.14,77.31,145.34,85.38,129.43,90.65Z"/><polygon class="cls-1" points="101.76 66.71 93.38 61.92 85.75 68.42 90.66 58.36 81.2 49.2 71.73 58.36 76.64 68.42 69.01 61.92 60.63 66.71 65.11 76.99 73.26 76.99 67.83 79.42 67.83 88.42 76.94 88 80.2 81.13 80.2 93.11 82.2 93.11 82.2 81.13 85.45 88 94.57 88.42 94.57 79.42 89.13 76.99 97.28 76.99 101.76 66.71"/></svg>